<?xml version="1.0" encoding="UTF-8" standalone="no"?>
<svg width="59px" height="59px" viewBox="0 0 59 59" version="1.1" xmlns="http://www.w3.org/2000/svg" xmlns:xlink="http://www.w3.org/1999/xlink">
    <!-- Generator: sketchtool 40.1 (33804) - http://www.bohemiancoding.com/sketch -->
    <title>9F6E163A-7D60-45BF-8BE1-270CF06E1E73</title>
    <desc>Created with sketchtool.</desc>
    <defs></defs>
    <g id="Page-1" stroke="none" stroke-width="1" fill="none" fill-rule="evenodd">
        <g id="Engineer-Homework-Test-UI" transform="translate(-438.000000, -148.000000)">
            <g id="header-icon" transform="translate(440.000000, 150.000000)">
                <g id="Group-2">
                    <circle id="Oval" stroke="#1E8D61" stroke-width="4" fill="#3DB787" cx="27.5" cy="27.5" r="27.5"></circle>
                    <g id="Group" transform="translate(8.000000, 14.000000)">
                        <path d="M18.0929163,13.3152475 L8.44685375,13.3152475 L8.44685375,7.84396 C8.44685375,7.6185725 8.62949125,7.435935 8.85487875,7.435935 L17.6848913,7.435935 C17.9102788,7.435935 18.0929163,7.6185725 18.0929163,7.84396 L18.0929163,13.3152475 Z" id="Fill-1" fill="#E6E6E6"></path>
                        <path d="M29.3347887,13.3152475 L19.6887262,13.3152475 L19.6887262,7.84396 C19.6887262,7.6185725 19.8713637,7.435935 20.0967512,7.435935 L28.9267637,7.435935 C29.1521512,7.435935 29.3347887,7.6185725 29.3347887,7.84396 L29.3347887,13.3152475 Z" id="Fill-3" fill="#E6E6E6"></path>
                        <path d="M23.1272513,5.87938375 L14.5696513,5.87938375 C14.2692138,5.87938375 14.0255388,5.63570875 14.0255388,5.33503375 L14.0255388,0.54442125 C14.0255388,0.24374625 14.2692138,7.125e-05 14.5696513,7.125e-05 L23.1272513,7.125e-05 C23.4279263,7.125e-05 23.6716013,0.24374625 23.6716013,0.54442125 L23.6716013,5.33503375 C23.6716013,5.63570875 23.4279263,5.87938375 23.1272513,5.87938375" id="Fill-5" fill="#FFFFFF"></path>
                        <path d="M20.3523725,18.3761587 C19.3567725,18.3761587 18.5497475,17.5691337 18.5497475,16.5735337 C18.5497475,15.5779337 19.3567725,14.7709087 20.3523725,14.7709087 C21.3479725,14.7709087 22.1549975,15.5779337 22.1549975,16.5735337 C22.1549975,17.5691337 21.3479725,18.3761587 20.3523725,18.3761587 M13.4444475,18.3761587 C12.4488475,18.3761587 11.6418225,17.5691337 11.6418225,16.5735337 C11.6418225,15.5779337 12.4488475,14.7709087 13.4444475,14.7709087 C14.4400475,14.7709087 15.2470725,15.5779337 15.2470725,16.5735337 C15.2470725,17.5691337 14.4400475,18.3761587 13.4444475,18.3761587 M6.5365225,18.3761587 C5.54116,18.3761587 4.7338975,17.5691337 4.7338975,16.5735337 C4.7338975,15.5779337 5.54116,14.7709087 6.5365225,14.7709087 C7.5321225,14.7709087 8.3391475,15.5779337 8.3391475,16.5735337 C8.3391475,17.5691337 7.5321225,18.3761587 6.5365225,18.3761587 M37.3217475,12.6963462 L0.57551,12.6963462 C0.17651,12.6963462 -0.1011275,13.0924962 0.03496,13.4672712 L3.135285,21.9289212 C3.3687475,22.5661337 3.975085,22.9898337 4.65386,22.9898337 L33.53101,22.9898337 C34.036885,22.9898337 34.48861,22.6741962 34.66246,22.1991962 L37.872985,13.4337837 C37.98176,13.0654212 37.7055475,12.6963462 37.3217475,12.6963462" id="Fill-7" fill="#F2F2F2"></path>
                    </g>
                </g>
            </g>
        </g>
    </g>
</svg>